<svg width="146" height="47" viewBox="0 0 146 47" fill="none" xmlns="http://www.w3.org/2000/svg">
<path d="M17.9861 8.21353C19.4309 8.21353 20.7552 8.7315 21.9592 9.76744C23.1832 10.7738 24.1464 12.2389 24.8487 14.1628C25.5711 16.0571 25.9323 18.2622 25.9323 20.778C25.9323 23.2939 25.5711 25.5137 24.8487 27.4376C24.1464 29.3615 23.1832 30.8414 21.9592 31.8774C20.7552 32.8837 19.4309 33.3869 17.9861 33.3869C15.9595 33.3869 14.4545 32.5729 13.4713 30.945V32.9429H7V0H13.8024V10.3002C14.7655 8.90909 16.1601 8.21353 17.9861 8.21353ZM16.3608 25.5729C17.1434 25.5729 17.7855 25.1586 18.2871 24.3298C18.7888 23.4715 19.0396 22.2875 19.0396 20.778C19.0396 19.2685 18.7888 18.0994 18.2871 17.2706C17.7855 16.4419 17.1434 16.0275 16.3608 16.0275C15.5782 16.0275 14.9361 16.4419 14.4345 17.2706C13.9328 18.0994 13.682 19.2685 13.682 20.778C13.682 22.2875 13.9328 23.4715 14.4345 24.3298C14.9361 25.1586 15.5782 25.5729 16.3608 25.5729Z" fill="#57675A" fill-opacity="0.78"/>
<path d="M46.0744 8.65751V28.1036C46.0744 32.7209 45.2015 36.1839 43.4558 38.4926C41.7301 40.8309 39.282 42 36.1116 42C34.4863 42 32.9612 41.7336 31.5366 41.2008C30.1319 40.6977 28.928 39.9577 27.9247 38.981L30.2122 32.1438C30.8543 32.8541 31.657 33.4313 32.6201 33.8753C33.6034 34.3192 34.5364 34.5412 35.4193 34.5412C36.7638 34.5412 37.737 34.1121 38.3389 33.2537C38.961 32.3954 39.272 31.1374 39.272 29.4799V29.3023C38.0881 30.8414 36.6434 31.611 34.9377 31.611C32.8509 31.611 31.1754 30.6786 29.9112 28.814C28.6471 26.9197 28.015 24.0782 28.015 20.2896V8.65751H34.8174V18.5581C34.8174 20.2156 34.9979 21.3996 35.3591 22.1099C35.7203 22.8203 36.2521 23.1755 36.9544 23.1755C37.6166 23.1755 38.1684 22.7907 38.6098 22.0211C39.0513 21.222 39.272 19.9789 39.272 18.2918V8.65751H46.0744Z" fill="#57675A" fill-opacity="0.78"/>
<path d="M76.1748 8.65751V32.9429H69.7035V30.945C68.7203 32.5729 67.2153 33.3869 65.1887 33.3869C63.7439 33.3869 62.4095 32.8837 61.1855 31.8774C59.9815 30.8414 59.0184 29.3615 58.296 27.4376C57.5937 25.5137 57.2425 23.2939 57.2425 20.778C57.2425 18.2622 57.5937 16.0571 58.296 14.1628C59.0184 12.2389 59.9815 10.7738 61.1855 9.76744C62.4095 8.7315 63.7439 8.21353 65.1887 8.21353C67.0147 8.21353 68.4092 8.90909 69.3724 10.3002V8.65751H76.1748ZM66.814 25.5729C67.5966 25.5729 68.2387 25.1586 68.7403 24.3298C69.242 23.4715 69.4928 22.2875 69.4928 20.778C69.4928 19.2685 69.242 18.0994 68.7403 17.2706C68.2387 16.4419 67.5966 16.0275 66.814 16.0275C66.0314 16.0275 65.3893 16.4419 64.8877 17.2706C64.386 18.0994 64.1352 19.2685 64.1352 20.778C64.1352 22.2875 64.386 23.4715 64.8877 24.3298C65.3893 25.1586 66.0314 25.5729 66.814 25.5729Z" fill="#121412" fill-opacity="0.78"/>
<path d="M86.0832 33.3869C83.9161 33.3869 82.2205 32.5877 80.9965 30.9894C79.7925 29.3615 79.1906 27.0233 79.1906 23.9746V0H85.9929V23.4419C85.9929 24.2114 86.1234 24.8034 86.3842 25.2178C86.6451 25.6025 87.0163 25.7949 87.4979 25.7949C87.7186 25.7949 87.9393 25.7505 88.1601 25.6617C88.4009 25.5729 88.5915 25.4693 88.7319 25.351L89.0028 32.7653C88.0397 33.1797 87.0665 33.3869 86.0832 33.3869Z" fill="#121412" fill-opacity="0.78"/>
<path d="M99.8077 25.9725C100.53 25.9725 101.132 25.8393 101.614 25.5729C102.115 25.3066 102.657 24.8478 103.239 24.1966L106.791 29.4799C105.145 32.0846 102.747 33.3869 99.597 33.3869C97.6104 33.3869 95.8647 32.8541 94.3598 31.7886C92.8548 30.6934 91.691 29.1839 90.8683 27.26C90.0456 25.3362 89.6342 23.1755 89.6342 20.778C89.6342 18.351 90.0456 16.1903 90.8683 14.296C91.691 12.3721 92.8147 10.8774 94.2394 9.81184C95.6841 8.7463 97.2994 8.21353 99.0853 8.21353C100.711 8.21353 102.206 8.7019 103.57 9.67865C104.935 10.6258 106.018 12.0465 106.821 13.9408C107.623 15.8055 108.025 18.0402 108.025 20.6448L96.7677 23.8414C97.2693 25.2622 98.2827 25.9725 99.8077 25.9725ZM99.1154 15.0507C98.3328 15.0507 97.6907 15.3911 97.1891 16.0719C96.7075 16.7526 96.4165 17.759 96.3162 19.0909L101.584 17.5814C101.403 16.8118 101.092 16.2051 100.65 15.7611C100.229 15.2875 99.7174 15.0507 99.1154 15.0507Z" fill="#121412" fill-opacity="0.78"/>
<path d="M118.057 25.4841L116.974 27.2156V32.9429H110.171V0H116.974V15.7167L121.699 8.65751H129.736L122.933 19.1797L130.278 32.9429H122.06L118.057 25.4841Z" fill="#121412" fill-opacity="0.78"/>
<path d="M137.482 33.3869C136.077 33.3869 134.693 33.1649 133.328 32.7209C131.964 32.277 130.86 31.6998 130.017 30.9894L131.884 24.3742C132.646 25.055 133.549 25.5877 134.592 25.9725C135.636 26.3573 136.649 26.5497 137.632 26.5497C138.415 26.5497 138.957 26.4609 139.258 26.2833C139.579 26.0761 139.739 25.7801 139.739 25.3953C139.739 25.0106 139.539 24.7442 139.137 24.5962C138.756 24.4482 138.124 24.3002 137.241 24.1522C135.897 23.9154 134.753 23.6195 133.81 23.2643C132.867 22.8795 132.034 22.1543 131.312 21.0888C130.609 20.0233 130.258 18.4989 130.258 16.5159C130.258 14.9471 130.579 13.5412 131.221 12.2981C131.863 11.055 132.817 10.0634 134.081 9.32347C135.365 8.58351 136.9 8.21353 138.686 8.21353C139.93 8.21353 141.144 8.39112 142.328 8.7463C143.532 9.07188 144.555 9.56025 145.398 10.2114L143.532 16.8266C142.087 15.6427 140.502 15.0507 138.776 15.0507C137.291 15.0507 136.549 15.4355 136.549 16.2051C136.549 16.5899 136.75 16.871 137.151 17.0486C137.552 17.1966 138.184 17.3446 139.047 17.4926C140.392 17.7294 141.525 18.0402 142.448 18.4249C143.391 18.8097 144.214 19.5349 144.916 20.6004C145.639 21.666 146 23.1903 146 25.1734C146 26.6829 145.679 28.0592 145.037 29.3023C144.395 30.5455 143.432 31.537 142.147 32.277C140.863 33.0169 139.308 33.3869 137.482 33.3869Z" fill="#121412" fill-opacity="0.78"/>
</svg>
